# Blender 4.0.1
# www.blender.org
mtllib cactus2.mtl
o cactus_2
v -2.650176 -0.000000 -0.217943
v -2.654134 2.658636 -0.171402
v -2.489454 -0.000000 -0.154109
v -2.502468 2.658636 -0.119177
v -2.422881 0.000000 0.000000
v -2.439646 2.658636 0.006905
v -2.489454 0.000000 0.154109
v -2.502468 2.658636 0.132988
v -2.650176 0.000000 0.217943
v -2.654134 2.658636 0.185213
v -2.810898 0.000000 0.154109
v -2.805800 2.658636 0.132988
v -2.877471 0.000000 0.000000
v -2.868622 2.658636 0.006905
v -2.810898 -0.000000 -0.154109
v -2.805800 2.658636 -0.119177
v -2.650176 0.935949 -0.183615
v -2.489454 0.935949 -0.126448
v -2.422881 0.935949 0.011565
v -2.489454 0.935949 0.149578
v -2.650176 0.935949 0.206745
v -2.810898 0.935949 0.149578
v -2.877471 0.935949 0.011565
v -2.810898 0.935949 -0.126448
v -2.650176 1.178521 -0.174718
v -2.489454 1.178521 -0.119279
v -2.422881 1.178521 0.014562
v -2.489454 1.178521 0.148403
v -2.650176 1.178521 0.203842
v -2.810898 1.178521 0.148403
v -2.877471 1.178521 0.014562
v -2.810898 1.178521 -0.119279
v -2.522279 2.764076 -0.112862
v -2.654134 2.764076 -0.162472
v -2.467663 2.764076 0.006905
v -2.522279 2.764076 0.126672
v -2.654134 2.764076 0.176282
v -2.785989 2.764076 0.126672
v -2.840605 2.764076 0.006905
v -2.785989 2.764076 -0.112862
v -2.595179 2.903136 -0.034428
v -2.538158 2.847055 -0.098439
v -2.654134 2.847044 -0.142078
v -2.654134 2.903136 -0.056610
v -2.576330 2.903136 0.006905
v -2.490123 2.847067 0.006905
v -2.595179 2.903136 0.048238
v -2.538158 2.847055 0.112249
v -2.654134 2.903136 0.070420
v -2.654134 2.847044 0.155888
v -2.713089 2.903136 0.048238
v -2.770110 2.847055 0.112249
v -2.731938 2.903136 0.006905
v -2.818145 2.847067 0.006905
v -2.713089 2.903136 -0.034428
v -2.770110 2.847055 -0.098439
v -2.833626 1.136873 -0.074101
v -2.822443 1.050967 -0.099115
v -2.836743 0.972339 -0.071794
v -2.838785 1.127199 0.092588
v -2.828000 1.060347 0.114593
v -2.836294 0.981635 0.097493
v -2.894619 1.178732 0.012069
v -2.894619 0.936156 0.010013
v -2.894619 1.137456 -0.079891
v -2.894619 1.051550 -0.099224
v -2.894619 0.972922 -0.078108
v -2.894619 1.126953 0.098626
v -2.894619 1.060101 0.115634
v -2.894619 0.981388 0.102417
v -3.055410 1.252753 0.023088
v -3.169179 1.040708 0.021132
v -3.074769 1.216673 -0.064390
v -3.115059 1.141578 -0.082781
v -3.151936 1.072847 -0.062694
v -3.079695 1.207491 0.105425
v -3.111048 1.149053 0.121604
v -3.147965 1.080248 0.109032
v -3.233814 1.405076 0.035764
v -3.420609 1.253373 0.033831
v -3.265598 1.379263 -0.050712
v -3.331750 1.325538 -0.068892
v -3.392298 1.276366 -0.049036
v -3.273686 1.372694 0.117159
v -3.325166 1.330886 0.133153
v -3.385778 1.281660 0.120724
v -3.298869 1.504807 0.033975
v -3.519120 1.420611 0.032126
v -3.336346 1.490481 -0.048734
v -3.414346 1.460663 -0.066122
v -3.485738 1.433372 -0.047130
v -3.345882 1.486835 0.111825
v -3.406582 1.463631 0.127121
v -3.478051 1.436311 0.115235
v -3.186273 1.285574 0.111292
v -3.154195 1.324396 0.029426
v -3.276454 1.176435 0.114878
v -3.227690 1.235451 0.127378
v -3.179766 1.293449 -0.057551
v -3.232987 1.229040 -0.075836
v -3.281699 1.170088 -0.055865
v -3.304477 1.142522 0.027481
v -3.440123 1.709285 0.033520
v -3.397970 1.694830 0.033816
v -3.580594 1.618582 0.032141
v -3.561674 1.658547 0.032406
v -3.429044 1.681856 -0.041070
v -3.459688 1.701118 -0.013706
v -3.493719 1.654853 -0.056814
v -3.504317 1.682488 -0.024569
v -3.552914 1.630138 -0.039619
v -3.544184 1.665847 -0.012989
v -3.463862 1.699375 0.076378
v -3.436952 1.678555 0.104302
v -3.499497 1.684501 0.086184
v -3.487281 1.657540 0.118152
v -3.540701 1.667301 0.078701
v -3.546540 1.632799 0.107390
v -2.422881 1.603556 0.008120
v -2.422881 1.329180 0.012279
v -2.454970 1.578856 -0.053634
v -2.480017 1.540819 -0.100798
v -2.489454 1.446833 -0.118731
v -2.469827 1.350641 -0.082029
v -2.462875 1.369511 0.088787
v -2.480186 1.458169 0.120723
v -2.469766 1.550671 0.097062
v -2.049297 1.674977 0.114828
v -2.121217 1.759188 0.100522
v -2.135458 1.774305 -0.065050
v -2.113430 1.720857 -0.097491
v -2.125290 1.785476 0.007744
v -1.971013 1.619225 -0.083798
v -1.923786 1.608429 0.004975
v -2.056502 1.672036 -0.112206
v -1.976762 1.628024 0.094437
v -2.305439 1.614301 0.101061
v -2.300443 1.587399 -0.103743
v -2.155195 1.439740 0.008998
v -2.265813 1.518498 -0.121447
v -2.261233 1.526347 0.120837
v -2.307471 1.634902 -0.062724
v -2.290102 1.655031 0.008188
v -2.201149 1.448446 -0.083451
v -2.206914 1.462976 0.096121
v -1.875220 1.931303 0.123169
v -1.987498 1.989106 -0.076825
v -1.991498 1.995723 0.007092
v -1.781858 1.898138 -0.092272
v -1.791084 1.903275 0.106368
v -1.963161 1.979966 0.111382
v -1.955979 1.958806 -0.103554
v -1.744801 1.891644 0.004404
v -1.878632 1.929663 -0.115678
v -1.865458 2.285984 0.003760
v -1.924783 2.245014 0.004795
v -1.718984 2.278415 0.002502
v -1.680841 2.232723 0.002450
v -1.849878 2.285180 -0.045546
v -1.874691 2.243101 -0.091373
v -1.910104 2.244832 -0.073780
v -1.855348 2.285461 -0.043029
v -1.703099 2.234182 -0.083578
v -1.729618 2.278965 -0.043313
v -1.782354 2.281689 0.060550
v -1.793428 2.238902 0.107784
v -1.713699 2.234715 0.096622
v -1.736011 2.279295 0.054676
v -1.839928 2.284665 0.055868
v -1.881464 2.243521 0.100512
v -1.793122 2.238876 -0.099053
v -1.781924 2.281667 -0.051524
v -2.489454 1.457028 0.139392
v -2.877471 1.473308 0.010094
v -2.650176 1.463753 -0.172104
v -2.810898 1.455725 0.139435
v -2.650176 1.456766 0.192858
v -2.810898 1.462394 -0.118700
vn -0.0000 0.0194 -0.9998
vn 0.0004 0.0035 -1.0000
vn 0.2701 -0.0566 -0.9612
vn 0.6614 0.0111 -0.7500
vn 0.6277 -0.3993 -0.6682
vn 0.8240 -0.5623 0.0691
vn 1.0000 0.0044 0.0032
vn 0.6184 -0.3444 0.7063
vn 0.6126 -0.0382 0.7895
vn 0.6574 0.0182 0.7533
vn 0.6586 0.0144 0.7524
vn 0.0004 0.0216 0.9998
vn -0.0000 0.0221 0.9998
vn -0.6567 0.0155 0.7540
vn -0.6574 0.0143 0.7534
vn -1.0000 0.0054 -0.0020
vn -0.7040 0.7052 0.0839
vn -0.9930 0.1177 -0.0006
vn -0.6677 0.0881 0.7392
vn -0.6535 0.2055 0.7285
vn -0.9690 0.2470 -0.0000
vn -0.6551 0.0018 -0.7555
vn -0.6615 0.0120 -0.7498
vn -0.0000 -0.6178 -0.7863
vn 0.5318 -0.6220 -0.5747
vn 0.7772 -0.6293 -0.0026
vn 0.5304 -0.6289 0.5685
vn -0.0000 -0.6272 0.7789
vn -0.5304 -0.6289 0.5685
vn -0.7772 -0.6293 -0.0026
vn -0.5318 -0.6220 -0.5747
vn -0.0000 0.0331 -0.9995
vn 0.6734 0.0217 -0.7389
vn 1.0000 0.0041 -0.0001
vn 0.6735 0.0034 0.7392
vn -0.0000 0.0084 1.0000
vn -0.6730 0.0039 0.7396
vn -0.6993 -0.7134 0.0458
vn -0.6738 0.0222 -0.7386
vn -0.4886 -0.4054 -0.7726
vn -0.4796 -0.0067 -0.8774
vn -0.4793 0.3951 -0.7837
vn -0.4888 0.3665 0.7917
vn -0.4782 0.0278 0.8778
vn -0.4818 -0.3584 0.7996
vn -0.0003 0.0557 0.9984
vn 0.6666 0.0902 0.7399
vn 0.6535 0.2055 0.7285
vn -0.0000 0.1699 0.9855
vn -0.6673 0.0860 -0.7398
vn -0.6535 0.2055 -0.7285
vn 0.9926 0.1216 -0.0020
vn 0.6650 0.0884 -0.7416
vn 0.6535 0.2055 -0.7285
vn 0.9690 0.2470 -0.0000
vn -0.0003 0.0529 -0.9986
vn -0.0000 0.1699 -0.9855
vn 0.5698 0.5440 -0.6160
vn 0.8370 0.5472 -0.0000
vn -0.5698 0.5440 0.6160
vn -0.8370 0.5472 -0.0000
vn 0.5698 0.5440 0.6160
vn -0.0000 0.5415 0.8407
vn 0.2394 0.9374 -0.2528
vn -0.0000 0.9390 -0.3440
vn -0.2394 0.9374 -0.2528
vn -0.3520 0.9360 -0.0000
vn 0.3520 0.9360 -0.0000
vn -0.5698 0.5440 -0.6160
vn -0.0000 0.5415 -0.8407
vn 0.2394 0.9374 0.2528
vn -0.0000 0.9390 0.3440
vn -0.2394 0.9374 0.2528
vn 0.1501 0.5446 0.8252
vn 0.2408 0.9699 0.0367
vn 0.5011 0.8632 0.0605
vn 0.3170 0.4856 0.8147
vn 0.0382 0.0153 0.9992
vn -0.0909 -0.6200 0.7793
vn 0.0424 0.0073 0.9991
vn -0.2789 -0.5529 0.7852
vn -0.1229 -0.6657 -0.7360
vn -0.0230 -0.0407 -0.9989
vn 0.1132 0.5818 -0.8054
vn -0.1603 -0.9870 0.0141
vn 0.3648 0.4909 -0.7912
vn -0.0565 0.0080 -0.9984
vn -0.0508 0.0012 -0.9987
vn 0.4536 0.3992 -0.7968
vn -0.4522 -0.4822 -0.7503
vn -0.6464 -0.7624 0.0299
vn -0.7837 -0.6201 0.0367
vn -0.5367 -0.4017 -0.7420
vn -0.3589 -0.5775 -0.7333
vn -0.0707 -0.0125 -0.9974
vn 0.2611 0.5526 -0.7915
vn -0.4842 -0.8745 0.0296
vn 0.0243 0.0160 0.9996
vn 0.4423 0.3492 0.8261
vn 0.4892 0.3048 0.8171
vn 0.0092 0.0498 0.9987
vn -0.4699 -0.3784 0.7975
vn -0.5588 -0.2312 0.7964
vn -0.9139 -0.4049 0.0288
vn -0.3664 -0.4780 0.7983
vn 0.0518 -0.0025 0.9987
vn 0.4033 0.4127 0.8167
vn 0.6517 0.7561 0.0604
vn 0.7756 0.6271 0.0724
vn 0.3407 0.5742 0.7445
vn -0.1209 0.3861 0.9145
vn -0.6071 -0.2616 -0.7503
vn -0.9992 0.0299 0.0264
vn -0.7023 0.1520 -0.6955
vn -0.0402 0.0140 -0.9991
vn 0.5240 0.3150 -0.7913
vn 0.8616 0.5042 0.0588
vn 0.6844 0.7272 0.0525
vn 0.0618 0.9975 0.0333
vn -0.0928 0.9391 -0.3309
vn -0.3589 0.8390 -0.4090
vn -0.6119 0.7230 -0.3207
vn -0.7495 0.6618 0.0178
vn -0.5933 0.7281 0.3433
vn -0.3362 0.8505 0.4045
vn -0.0998 0.9342 0.3425
vn -0.1715 0.3652 -0.9150
vn 0.3677 0.5944 -0.7152
vn -0.6492 0.1695 0.7415
vn 0.0552 -0.0148 -0.9984
vn -0.2937 0.1554 -0.9432
vn -0.2320 0.4614 -0.8563
vn 0.0675 0.4009 -0.9136
vn -0.7619 0.3507 -0.5446
vn -0.9013 0.4172 0.1161
vn -0.8235 0.5585 0.0995
vn -0.6748 0.5352 -0.5081
vn -0.3247 0.9443 0.0527
vn -0.1672 0.9260 0.3386
vn 0.0624 0.9205 0.3857
vn 0.3594 0.8705 0.3362
vn 0.5041 0.8634 0.0224
vn -0.5368 0.2612 0.8022
vn -0.4713 0.5005 0.7262
vn 0.9271 -0.3731 0.0365
vn 0.6243 -0.2630 -0.7356
vn 0.6644 0.2880 -0.6897
vn 0.9743 0.2227 0.0343
vn 0.5848 -0.2461 0.7729
vn 0.6239 0.2927 0.7246
vn 0.0440 -0.0183 0.9989
vn 0.0582 0.4036 0.9131
vn 0.2935 -0.5697 0.7677
vn 0.5029 -0.8611 0.0751
vn 0.7401 -0.6709 0.0452
vn 0.4505 -0.4545 0.7684
vn 0.0290 -0.0673 0.9973
vn 0.0456 -0.0594 0.9972
vn 0.3367 -0.6456 -0.6854
vn 0.0478 -0.0874 -0.9950
vn 0.0585 -0.0594 -0.9965
vn 0.4917 -0.4929 -0.7179
vn -0.1875 0.4026 -0.8960
vn -0.2548 0.2664 -0.9296
vn -0.5247 0.8463 0.0926
vn -0.2970 0.5650 0.7698
vn -0.4680 0.4392 0.7669
vn -0.7443 0.6593 0.1065
vn -0.4145 0.7713 -0.4830
vn -0.6416 0.5824 -0.4992
vn 0.4115 0.2773 -0.8682
vn 0.3899 0.6096 -0.6902
vn 0.3932 0.3433 0.8529
vn 0.4573 0.8847 0.0906
vn -0.2493 0.9362 -0.2477
vn -0.0485 0.9282 -0.3689
vn 0.3733 0.8714 -0.3183
vn 0.0677 0.9187 -0.3891
vt 0.411670 0.180100
vt 0.506097 0.180128
vt 0.500830 0.235946
vt 0.412093 0.236574
vt 0.469218 0.249959
vt 0.462558 0.284783
vt 0.412883 0.286053
vt 0.410921 0.308199
vt 0.460594 0.308615
vt 0.473227 0.337386
vt 0.502053 0.350058
vt 0.501508 0.356879
vt 0.410037 0.357258
vt 0.501015 0.412867
vt 0.409454 0.412809
vt 0.501082 0.468879
vt 0.409906 0.468395
vt 0.507838 0.516742
vt 0.410734 0.517455
vt 0.893478 0.507705
vt 0.883788 0.462931
vt 0.914541 0.453533
vt 0.930204 0.493331
vt 0.412948 0.074230
vt 0.510122 0.076693
vt 0.505947 0.124365
vt 0.412129 0.123641
vt 0.763817 0.574418
vt 0.763817 0.630330
vt 0.725455 0.668726
vt 0.671203 0.667113
vt 0.632841 0.626437
vt 0.632841 0.570525
vt 0.671203 0.532129
vt 0.725455 0.533741
vt 0.022207 0.179621
vt 0.331182 0.180040
vt 0.331737 0.236366
vt 0.022901 0.236627
vt 0.332968 0.286864
vt 0.024453 0.291943
vt 0.023096 0.299878
vt 0.331074 0.306212
vt 0.330473 0.356601
vt 0.022587 0.355122
vt 0.330065 0.412685
vt 0.022207 0.412032
vt 0.330252 0.468792
vt 0.022338 0.468945
vt 0.330624 0.519203
vt 0.022606 0.524194
vt 0.333273 0.073197
vt 0.331881 0.123743
vt 0.023049 0.122615
vt 0.024745 0.067298
vt 0.344430 0.104106
vt 0.370099 0.114930
vt 0.398671 0.106592
vt 0.393364 0.489057
vt 0.371282 0.481228
vt 0.345432 0.487718
vt 0.879869 0.414126
vt 0.883873 0.365340
vt 0.914580 0.374775
vt 0.909894 0.414144
vt 0.884537 0.130174
vt 0.894062 0.085559
vt 0.930739 0.099801
vt 0.915181 0.139507
vt 0.894159 0.271868
vt 0.884605 0.227364
vt 0.915213 0.218004
vt 0.930774 0.257652
vt 0.880678 0.178780
vt 0.910569 0.178764
vt 0.893598 0.320706
vt 0.930247 0.335050
vt 0.937936 0.209960
vt 0.957695 0.241486
vt 0.937346 0.445457
vt 0.957189 0.477076
vt 0.937364 0.382863
vt 0.932649 0.414154
vt 0.964231 0.196811
vt 0.959848 0.178751
vt 0.964228 0.160687
vt 0.977793 0.151213
vt 0.977793 0.206278
vt 0.957199 0.351286
vt 0.957686 0.115982
vt 0.937921 0.147541
vt 0.933246 0.178756
vt 0.977311 0.386574
vt 0.963718 0.396057
vt 0.959322 0.414160
vt 0.963715 0.432267
vt 0.977311 0.441758
vt 0.592134 0.579320
vt 0.623243 0.593330
vt 0.609987 0.651245
vt 0.577136 0.647244
vt 0.602199 0.563137
vt 0.624906 0.587871
vt 0.558988 0.536250
vt 0.583797 0.547879
vt 0.572261 0.567022
vt 0.549846 0.553322
vt 0.554473 0.643757
vt 0.528676 0.639332
vt 0.437829 0.857595
vt 0.410430 0.866774
vt 0.402955 0.848954
vt 0.426300 0.836435
vt 0.485590 0.811841
vt 0.462143 0.839047
vt 0.451554 0.821122
vt 0.482545 0.806965
vt 0.523220 0.532129
vt 0.519973 0.537121
vt 0.376014 0.867171
vt 0.374078 0.861460
vt 0.437812 0.708438
vt 0.408684 0.708682
vt 0.411478 0.662663
vt 0.440436 0.666365
vt 0.382418 0.708296
vt 0.351737 0.706379
vt 0.356117 0.651939
vt 0.385529 0.658307
vt 0.383794 0.761707
vt 0.410302 0.758220
vt 0.439690 0.753830
vt 0.472256 0.748162
vt 0.495946 0.633177
vt 0.352468 0.764441
vt 0.554342 0.736666
vt 0.576300 0.733795
vt 0.586145 0.776816
vt 0.566171 0.784576
vt 0.497192 0.745548
vt 0.529543 0.740441
vt 0.543581 0.795140
vt 0.516546 0.808697
vt 0.526522 0.691776
vt 0.552107 0.692214
vt 0.574399 0.692457
vt 0.606804 0.692057
vt 0.607956 0.729955
vt 0.470459 0.707057
vt 0.473085 0.668993
vt 0.493524 0.690811
vt 0.599322 0.834264
vt 0.585574 0.837899
vt 0.401556 0.602845
vt 0.377173 0.590275
vt 0.415492 0.534342
vt 0.429637 0.555809
vt 0.423865 0.613683
vt 0.449301 0.623450
vt 0.615209 0.769268
vt 0.478138 0.629659
vt 0.624906 0.838974
vt 0.473711 0.547313
vt 0.459875 0.555955
vt 0.447722 0.552374
vt 0.437307 0.547272
vt 0.433032 0.532129
vt 0.572704 0.868724
vt 0.578044 0.852853
vt 0.589131 0.848417
vt 0.599359 0.845675
vt 0.614275 0.853088
vt 0.443844 0.562324
vt 0.459895 0.567329
vt 0.570908 0.843731
vt 0.554914 0.866712
vt 0.485590 0.560127
vt 0.100467 0.811431
vt 0.126167 0.804353
vt 0.146961 0.886113
vt 0.129492 0.895878
vt 0.142284 0.806503
vt 0.171287 0.804220
vt 0.181226 0.889401
vt 0.156543 0.882993
vt 0.327846 0.553215
vt 0.312515 0.561379
vt 0.298894 0.554650
vt 0.287921 0.549242
vt 0.286399 0.532129
vt 0.334556 0.659376
vt 0.296798 0.655737
vt 0.312775 0.579391
vt 0.343802 0.573143
vt 0.036805 0.837839
vt 0.069824 0.823331
vt 0.110688 0.907850
vt 0.098240 0.934121
vt 0.239513 0.642286
vt 0.204288 0.627655
vt 0.263194 0.533078
vt 0.277090 0.560633
vt 0.265516 0.651833
vt 0.293895 0.570455
vt 0.238134 0.841593
vt 0.202933 0.837935
vt 0.189160 0.740879
vt 0.224661 0.748261
vt 0.267315 0.841060
vt 0.254172 0.753644
vt 0.067913 0.622075
vt 0.101701 0.621481
vt 0.090495 0.708381
vt 0.055864 0.715267
vt 0.127412 0.627858
vt 0.116729 0.707426
vt 0.033459 0.626788
vt 0.022207 0.723368
vt 0.331502 0.815347
vt 0.300875 0.832588
vt 0.292485 0.749843
vt 0.325557 0.744369
vt 0.146697 0.638239
vt 0.169046 0.651029
vt 0.162975 0.721022
vt 0.138043 0.716053
vt 0.152355 0.570136
vt 0.165213 0.587628
vt 0.319485 0.890421
vt 0.296208 0.913540
vt 0.181226 0.605570
vt 0.343802 0.861460
vt 0.060367 0.533336
vt 0.097142 0.532129
vt 0.128857 0.547859
vt 0.267187 0.928743
vt 0.234245 0.931678
vt 0.153461 0.902432
vt 0.151828 0.902949
vt 0.122847 0.919098
vt 0.123021 0.934969
vt 0.135343 0.911828
vt 0.165527 0.911440
vt 0.552310 0.281572
vt 0.543868 0.259092
vt 0.531246 0.241980
vt 0.532452 0.342342
vt 0.550492 0.309802
s 1
usemtl cacturs_2
f 25/1/1 175/2/2 123/3/3 26/4/4
f 26/4/4 123/3/3 124/5/5 120/6/6 27/7/7
f 27/8/7 120/9/6 125/10/8 126/11/9 173/12/10 28/13/11
f 28/13/11 173/12/10 177/14/12 29/15/13
f 29/15/13 177/14/12 176/16/14 30/17/15
f 30/17/15 176/16/14 174/18/16 31/19/17
f 14/20/18 12/21/19 38/22/20 39/23/21
f 31/24/17 174/25/16 178/26/22 32/27/23
f 32/27/23 178/26/22 175/2/2 25/1/1
f 1/28/24 3/29/25 5/30/26 7/31/27 9/32/28 11/33/29 13/34/30 15/35/31
f 1/36/24 17/37/32 18/38/33 3/39/25
f 3/39/25 18/38/33 19/40/34 5/41/26
f 5/42/26 19/43/34 20/44/35 7/45/27
f 20/44/35 21/46/36 9/47/28 7/45/27
f 21/46/36 22/48/37 11/49/29 9/47/28
f 22/48/37 23/50/38 13/51/30 11/49/29
f 23/52/38 24/53/39 15/54/31 13/55/30
f 24/53/39 17/37/32 1/36/24 15/54/31
f 24/53/39 32/27/23 25/1/1 17/37/32
f 23/52/38 59/56/40 58/57/41 57/58/42 31/24/17 32/27/23 24/53/39
f 22/48/37 30/17/15 31/19/17 60/59/43 61/60/44 62/61/45 23/50/38
f 21/46/36 29/15/13 30/17/15 22/48/37
f 20/44/35 28/13/11 29/15/13 21/46/36
f 19/43/34 27/8/7 28/13/11 20/44/35
f 18/38/33 26/4/4 27/7/7 19/40/34
f 17/37/32 25/1/1 26/4/4 18/38/33
f 10/62/46 8/63/47 36/64/48 37/65/49
f 16/66/50 14/67/18 39/68/21 40/69/51
f 6/70/52 4/71/53 33/72/54 35/73/55
f 12/21/19 10/62/46 37/65/49 38/22/20
f 2/74/56 16/66/50 40/69/51 34/75/57
f 4/71/53 2/74/56 34/75/57 33/72/54
f 8/63/47 6/76/52 35/77/55 36/64/48
f 35/73/55 33/72/54 42/78/58 46/79/59
f 39/23/21 38/22/20 52/80/60 54/81/61
f 37/65/49 36/64/48 48/82/62 50/83/63
f 41/84/64 44/85/65 55/86/66 53/87/67 45/88/68
f 36/64/48 35/77/55 46/89/59 48/82/62
f 40/69/51 39/68/21 54/90/61 56/91/69
f 38/22/20 37/65/49 50/83/63 52/80/60
f 34/75/57 40/69/51 56/91/69 43/92/70
f 42/78/58 43/92/70 44/85/65 41/84/64
f 46/79/59 42/78/58 41/84/64 45/88/68
f 48/82/62 46/89/59 45/93/68 47/94/71
f 50/83/63 48/82/62 47/94/71 49/95/72
f 52/80/60 50/83/63 49/95/72 51/96/73
f 54/81/61 52/80/60 51/96/73 53/97/67
f 56/91/69 54/90/61 53/87/67 55/86/66
f 43/92/70 56/91/69 55/86/66 44/85/65
f 33/72/54 34/75/57 43/92/70 42/78/58
f 68/98/74 63/99/75 71/100/76 76/101/77
f 60/102/43 31/103/17 63/99/75 68/98/74
f 62/104/45 61/105/44 69/106/78 70/107/79
f 70/107/79 69/106/78 77/108/80 78/109/81
f 58/110/41 59/111/40 67/112/82 66/113/83
f 31/114/17 57/115/42 65/116/84 63/117/75
f 23/118/38 62/104/45 70/107/79 64/119/85
f 61/105/44 60/102/43 68/98/74 69/106/78
f 59/111/40 23/120/38 64/121/85 67/112/82
f 57/115/42 58/110/41 66/113/83 65/116/84
f 99/122/86 100/123/87 82/124/88 81/125/89
f 101/126/90 102/127/91 80/128/92 83/129/93
f 66/113/83 67/112/82 75/130/94 74/131/95
f 63/117/75 65/116/84 73/132/96 71/133/76
f 64/119/85 70/107/79 78/109/81 72/134/97
f 69/106/78 68/98/74 76/101/77 77/108/80
f 67/112/82 64/121/85 72/135/97 75/130/94
f 65/116/84 66/113/83 74/131/95 73/132/96
f 85/136/98 84/137/99 92/138/100 93/139/101
f 80/140/92 86/141/102 94/142/103 88/143/104
f 97/144/105 98/145/106 85/136/98 86/141/102
f 95/146/107 96/147/108 79/148/109 84/137/99
f 100/123/87 101/126/90 83/129/93 82/124/88
f 96/149/108 99/122/86 81/125/89 79/150/109
f 102/151/91 97/144/105 86/141/102 80/140/92
f 98/145/106 95/146/107 84/137/99 85/136/98
f 93/139/101 92/138/100 114/152/110 116/153/111
f 91/154/112 88/155/104 105/156/113 111/157/114
f 83/129/93 80/128/92 88/155/104 91/154/112
f 81/125/89 82/124/88 90/158/115 89/159/116
f 86/141/102 85/136/98 93/139/101 94/142/103
f 84/137/99 79/148/109 87/160/117 92/138/100
f 82/124/88 83/129/93 91/154/112 90/158/115
f 79/150/109 81/125/89 89/159/116 87/161/117
f 92/138/100 87/160/117 104/162/118 114/152/110
f 103/163/119 108/164/120 110/165/121 112/166/122 106/167/123
f 106/168/123 117/169/124 115/170/125 113/171/126 103/172/119
f 89/159/116 90/158/115 109/173/127 107/174/128
f 94/142/103 93/139/101 116/153/111 118/175/129
f 88/143/104 94/142/103 118/175/129 105/176/113
f 90/158/115 91/154/112 111/157/114 109/173/127
f 77/108/80 76/101/77 95/146/107 98/145/106
f 104/177/118 107/174/128 108/164/120 103/163/119
f 107/174/128 109/173/127 110/165/121 108/164/120
f 109/173/127 111/157/114 112/166/122 110/165/121
f 111/157/114 105/156/113 106/167/123 112/166/122
f 103/172/119 113/171/126 114/152/110 104/162/118
f 113/171/126 115/170/125 116/153/111 114/152/110
f 115/170/125 117/169/124 118/175/129 116/153/111
f 117/169/124 106/168/123 105/176/113 118/175/129
f 87/161/117 89/159/116 107/174/128 104/177/118
f 72/134/97 78/109/81 97/144/105 102/151/91
f 71/133/76 73/132/96 99/122/86 96/149/108
f 74/131/95 75/130/94 101/126/90 100/123/87
f 76/101/77 71/100/76 96/147/108 95/146/107
f 78/109/81 77/108/80 98/145/106 97/144/105
f 75/130/94 72/135/97 102/127/91 101/126/90
f 73/132/96 74/131/95 100/123/87 99/122/86
f 154/178/130 152/179/131 160/180/132 171/181/133
f 147/182/134 148/183/135 156/184/136 161/185/137
f 155/186/138 169/187/139 165/188/140 168/189/141 157/190/142
f 148/191/135 151/192/143 170/193/144 156/194/136
f 153/195/145 149/196/146 163/197/147 158/198/148
f 150/199/149 153/200/145 158/201/148 167/202/150
f 149/196/146 154/178/130 171/181/133 163/197/147
f 146/203/151 150/199/149 167/202/150 166/204/152
f 151/192/143 146/203/151 166/204/152 170/193/144
f 152/179/131 147/182/134 161/185/137 160/180/132
f 145/205/153 139/206/154 134/207/155 136/208/156
f 141/209/157 145/205/153 136/208/156 128/210/158
f 144/211/159 140/212/160 135/213/161 133/214/162
f 140/212/160 138/215/163 131/216/164 135/213/161
f 139/217/154 144/211/159 133/214/162 134/218/155
f 143/219/165 137/220/166 129/221/167 132/222/168
f 142/223/169 143/224/165 132/225/168 130/226/170
f 137/220/166 141/209/157 128/210/158 129/221/167
f 138/215/163 142/223/169 130/226/170 131/216/164
f 122/227/171 121/228/172 142/223/169 138/215/163
f 127/229/173 126/230/9 141/209/157 137/220/166
f 121/228/172 119/231/174 143/224/165 142/223/169
f 119/232/174 127/229/173 137/220/166 143/219/165
f 120/233/6 124/234/5 144/211/159 139/217/154
f 123/235/3 122/227/171 138/215/163 140/212/160
f 124/234/5 123/235/3 140/212/160 144/211/159
f 126/230/9 125/236/8 145/205/153 141/209/157
f 125/236/8 120/237/6 139/206/154 145/205/153
f 136/208/156 134/207/155 153/200/145 150/199/149
f 128/210/158 136/208/156 150/199/149 146/203/151
f 133/214/162 135/213/161 154/178/130 149/196/146
f 135/213/161 131/216/164 152/179/131 154/178/130
f 134/218/155 133/214/162 149/196/146 153/195/145
f 132/222/168 129/221/167 151/192/143 148/191/135
f 130/226/170 132/225/168 148/183/135 147/182/134
f 129/221/167 128/210/158 146/203/151 151/192/143
f 131/216/164 130/226/170 147/182/134 152/179/131
f 160/180/132 161/185/137 162/238/175 159/239/176
f 158/198/148 163/197/147 164/240/177 157/241/142
f 166/204/152 167/202/150 168/189/141 165/188/140
f 170/193/144 166/204/152 165/188/140 169/187/139
f 156/194/136 170/193/144 169/187/139 155/186/138
f 163/197/147 171/181/133 172/242/178 164/240/177
f 167/202/150 158/201/148 157/190/142 168/189/141
f 161/185/137 156/184/136 155/243/138 162/238/175
f 171/181/133 160/180/132 159/239/176 172/242/178
f 157/241/142 164/240/177 172/242/178 159/239/176 162/238/175 155/243/138
f 119/244/174 121/245/172 122/246/171 123/3/3 4/71/53 6/70/52
f 177/14/12 173/12/10 8/63/47 10/62/46
f 123/3/3 175/2/2 2/74/56 4/71/53
f 178/26/22 174/25/16 14/67/18 16/66/50
f 176/16/14 177/14/12 10/62/46 12/21/19
f 175/2/2 178/26/22 16/66/50 2/74/56
f 174/18/16 176/16/14 12/21/19 14/20/18
f 173/12/10 126/11/9 127/247/173 119/248/174 6/76/52 8/63/47
f 45/93/68 53/97/67 51/96/73 49/95/72 47/94/71
